<svg xmlns="http://www.w3.org/2000/svg" xmlns:xlink="http://www.w3.org/1999/xlink" version="1.1" x="0px" y="0px" viewBox="-3.2 -6.4 70.4 86.4" style="enable-background:new 0 0 64 64;" xml:space="preserve"><g><path d="M44.85,27c0,1.65-1.569,2.99-3.489,2.99H22.64c-1.92,0-3.489-1.34-3.489-2.99s1.569-2.99,3.489-2.99H41.36   C43.28,24.01,44.85,25.35,44.85,27z"/><path d="M42.25,13.3c0,4.5-2.92,8.34-6.97,9.71H28.72c-4.05-1.37-6.97-5.21-6.97-9.71c0-5.66,4.6-10.26,10.25-10.26   S42.25,7.64,42.25,13.3z"/><path d="M49.94,52.52v7.94c0,0.27-0.23,0.5-0.5,0.5H14.56c-0.27,0-0.5-0.23-0.5-0.5v-7.94c0-0.14,0.061-0.28,0.171-0.37   c11.149-10.02,9.949-20.8,9.939-20.9c-0.01-0.09,0-0.18,0.04-0.26h15.58c0.04,0.08,0.05,0.16,0.04,0.25   c-0.01,0.11-1.19,10.91,9.939,20.91C49.88,52.24,49.94,52.38,49.94,52.52z"/></g></svg>