<svg xmlns="http://www.w3.org/2000/svg" xmlns:xlink="http://www.w3.org/1999/xlink" version="1.1" x="0px" y="0px" viewBox="-3.2 -6.4 70.4 86.4" style="enable-background:new 0 0 64 64;" xml:space="preserve"><g><path d="M52.66,51.39c-0.01-0.02-0.03-0.05-0.04-0.08c-1.21-2.3-3.49-3.77-6.95-4.46l-2.88-26.27c-0.01-0.06-0.02-0.13-0.04-0.19   c3.75-0.94,5.84-3.91,5.84-8.47V3.69c0-0.55-0.45-1-1-1h-7.16c-0.55,0-1,0.45-1,1v5.49h-2.45V3.83c0-0.55-0.45-1-1-1h-7.96   c-0.55,0-1,0.45-1,1v5.35h-2.45V3.69c0-0.55-0.45-1-1-1h-7.16c-0.55,0-1,0.45-1,1v8.23c0,4.56,2.09,7.53,5.84,8.47   c-0.02,0.06-0.03,0.13-0.04,0.19l-2.88,26.27c-3.37,0.68-5.62,2.09-6.85,4.28c-0.02,0.03-0.03,0.06-0.05,0.08   c-0.68,1.27-1.03,2.8-1.03,4.55v4.55c0,0.55,0.44,1,1,1h41.2c0.56,0,1-0.45,1-1v-4.55C53.6,54.09,53.29,52.62,52.66,51.39z    M17.41,11.92V4.69h5.16v5.49c0,0.56,0.45,1,1,1h4.45c0.55,0,1-0.44,1-1V4.83h5.96v5.35c0,0.56,0.45,1,1,1h4.45c0.55,0,1-0.44,1-1   V4.69h5.16v7.23c0,4.51-2.23,6.79-6.64,6.79h-15.9C19.64,18.71,17.41,16.43,17.41,11.92z M23.2,20.8c0-0.04,0.01-0.08,0.01-0.12   c0.27,0.02,0.55,0.03,0.84,0.03h15.9c0.29,0,0.57-0.01,0.84-0.03c0,0.04,0.01,0.08,0.01,0.12l2.82,25.74   c-1.22-0.13-2.54-0.2-4.03-0.2H24.41c-1.33,0-2.51,0.05-3.52,0.15c-0.03,0-0.07,0-0.1,0.01c-0.14,0.01-0.27,0.03-0.41,0.04   L23.2,20.8z M51.6,59.31H12.4v-3.55c0-1.38,0.25-2.57,0.75-3.53c0.02-0.02,0.04-0.04,0.05-0.07c1.16-2.13,3.63-3.3,7.68-3.67h0.1   c1.04-0.1,2.16-0.15,3.43-0.15h15.18c1.48,0,2.83,0.07,4.02,0.21c3.82,0.43,6.2,1.66,7.26,3.74c0.02,0.03,0.03,0.06,0.05,0.08   c0.45,0.93,0.68,2.07,0.68,3.39V59.31z"/></g><text x="0.0" y="75.2" font-size="3.2" font-weight="bold" font-family="Arbeit Regular, Helvetica, Arial-Unicode, Arial, Sans-serif" fill="#000000">Created by rizal2109</text><text x="0.0" y="78.4" font-size="3.2" font-weight="bold" font-family="Arbeit Regular, Helvetica, Arial-Unicode, Arial, Sans-serif" fill="#000000">from Noun Project</text></svg>