<svg xmlns="http://www.w3.org/2000/svg" xmlns:xlink="http://www.w3.org/1999/xlink" version="1.1" x="0px" y="0px" viewBox="-3.2 -6.4 70.4 86.4" style="enable-background:new 0 0 64 64;" xml:space="preserve"><g><path d="M54.12,51.15c-0.021-0.03-0.04-0.06-0.05-0.09c-0.801-1.53-2.101-2.67-3.92-3.44c0.02-0.01,0.029-0.03,0.04-0.05   c3.279-5.77,3.85-16.78,1.329-25.61C48.86,12.66,36,8.38,33.93,8.25c-1.689-0.1-3.199-1.11-5.239-3.48   c-1.03-1.21-2.061-1.69-3.051-1.41c-1.29,0.35-2.149,1.87-2.76,4.9c-5.51,1.26-6.32,8.52-6.43,10.25   c-1.01,1.21-5.08,6.24-6.99,10.62C8.73,30.8,8.83,32.41,9.73,33.79c1.649,2.52,5.59,3.53,6.96,3.53c1.579,0,2.38-0.81,3.699-2.15   c0.58-0.59,1.29-1.31,2.28-2.2c5.96-0.54,8.67-4.04,9.55-5.5c0.45,0.06,1.011,0.23,1.24,0.61c0.34,0.58,0.021,1.77-0.88,3.28   c-1.25,2.09-3.53,3.82-5.74,5.48c-3.56,2.69-7.24,5.47-6.5,9.91c0.01,0.07,0.021,0.13,0.05,0.19c-2.819,0.71-4.729,2.02-5.819,3.96   c-0.011,0.03-0.03,0.05-0.04,0.08c-0.66,1.21-1,2.69-1,4.38v4.36c0,0.55,0.45,1,1,1H54.02c0.561,0,1-0.45,1-1v-4.36   C55.02,53.74,54.72,52.33,54.12,51.15z M22.31,46.42c-0.54-3.24,2.37-5.44,5.74-7.98c2.36-1.78,4.79-3.63,6.24-6.05   c1.35-2.26,1.65-4.06,0.88-5.34c-1.01-1.69-3.32-1.63-3.58-1.61c-0.37,0.01-0.71,0.25-0.859,0.59c-0.08,0.18-2.12,4.53-8.551,4.97   c-0.22,0.01-0.43,0.1-0.6,0.25c-1.16,1.04-1.97,1.86-2.61,2.51c-1.31,1.33-1.6,1.56-2.279,1.56c-1.07,0-4.15-0.89-5.29-2.63   c-0.53-0.81-0.561-1.71-0.101-2.77c2.01-4.62,6.84-10.32,6.891-10.38c0.149-0.17,0.229-0.39,0.239-0.62c0-0.08,0.301-8.17,5.42-8.8   c0.44-0.05,0.79-0.38,0.87-0.82c0.66-3.76,1.44-4.01,1.45-4.02c0.05,0,0.4,0.09,1,0.79c2.43,2.83,4.35,4.04,6.63,4.18   c1.72,0.11,13.5,4.24,15.79,12.26c2.36,8.23,1.851,18.8-1.14,24.07c-0.07,0.13-0.11,0.27-0.12,0.41c-0.82-0.22-1.72-0.38-2.7-0.49   c-1.22-0.14-2.59-0.21-4.08-0.21H27.01c-1.29,0-2.43,0.04-3.38,0.14h-0.1c-0.42,0.04-0.82,0.09-1.21,0.15   C22.32,46.52,22.32,46.48,22.31,46.42z M53.02,58.72H15.53v-3.36c0-1.34,0.239-2.44,0.72-3.37c0.02-0.02,0.03-0.04,0.05-0.07   c1.101-2.02,3.46-3.13,7.32-3.49c0.03,0,0.07,0,0.1-0.01c0.99-0.09,2.061-0.13,3.29-0.13h14.54c1.41,0,2.71,0.06,3.851,0.19   c3.649,0.42,5.909,1.58,6.93,3.57c0.01,0.03,0.03,0.06,0.05,0.09c0.43,0.88,0.64,1.96,0.64,3.22V58.72z"/></g><text x="0.0" y="75.2" font-size="3.2" font-weight="bold" font-family="Arbeit Regular, Helvetica, Arial-Unicode, Arial, Sans-serif" fill="#000000">Created by rizal2109</text><text x="0.0" y="78.4" font-size="3.2" font-weight="bold" font-family="Arbeit Regular, Helvetica, Arial-Unicode, Arial, Sans-serif" fill="#000000">from Noun Project</text></svg>