<svg xmlns="http://www.w3.org/2000/svg" xmlns:xlink="http://www.w3.org/1999/xlink" version="1.1" x="0px" y="0px" viewBox="-3.2 -6.4 70.4 86.4" style="enable-background:new 0 0 64 64;" xml:space="preserve"><g><path d="M51.92,53.04c-0.74-1.14-1.87-2.02-3.439-2.64c3.399-2.77,13.26-11.7,10.949-20.42c-1.3-4.9-4.89-8.72-9.63-10.22   c-4.069-1.3-8.35-0.71-11.7,1.55c-0.279-0.83-0.659-2.07-1.029-3.32h3.739c0.551,0,1-0.45,1-1v-4.94c0-0.55-0.449-1-1-1h-3.47V3.43   c0-0.56-0.45-1-1-1h-8.68c-0.55,0-1,0.44-1,1v7.62H23.2c-0.561,0-1,0.45-1,1v4.94c0,0.55,0.439,1,1,1h3.729   c-0.37,1.25-0.75,2.49-1.029,3.32c-3.341-2.26-7.62-2.85-11.7-1.55c-4.74,1.5-8.33,5.32-9.63,10.22   c-2.391,9.05,8.3,18.32,11.3,20.71c-1.17,0.56-2.05,1.29-2.68,2.21c-0.021,0.03-0.03,0.05-0.051,0.07   C12.45,54,12.11,55.24,12.11,56.66v3.91c0,0.27,0.1,0.52,0.29,0.71c0.189,0.19,0.439,0.29,0.71,0.29l38.79-0.05c0.56,0,1-0.45,1-1   v-3.86c0-1.35-0.311-2.55-0.931-3.54C51.95,53.09,51.93,53.07,51.92,53.04z M6.51,30.49c1.13-4.3,4.16-7.51,8.3-8.83   c3.86-1.23,7.931-0.48,10.87,1.98c0.181,0.15,0.41,0.24,0.641,0.24c0.84,0,1.04,0,2.899-6.62c0.08-0.3,0.021-0.62-0.17-0.87   c-0.189-0.25-0.479-0.4-0.8-0.4H24.2v-2.94h3.46c0.55,0,1-0.45,1-1V4.43h6.68v7.62c0,0.55,0.45,1,1,1h3.47v2.94h-4.06   c-0.32,0-0.61,0.15-0.8,0.4c-0.19,0.25-0.25,0.57-0.17,0.87c1.859,6.62,2.06,6.62,2.899,6.62c0.23,0,0.46-0.09,0.641-0.24   c2.949-2.46,7.01-3.21,10.88-1.98c4.14,1.32,7.16,4.53,8.29,8.83c2.38,8.97-11.16,19.07-11.3,19.17   c-0.021,0.01-0.03,0.03-0.051,0.05c-0.77-0.16-1.6-0.28-2.51-0.36c-1.189-0.11-2.53-0.16-3.979-0.16H25.36   c-1.24,0-2.36,0.03-3.4,0.11c-1.49,0.11-2.8,0.31-3.93,0.61c-0.05-0.1-0.13-0.18-0.221-0.25C17.67,49.56,4.13,39.47,6.51,30.49z    M50.9,59.52l-36.79,0.05v-2.91c0-1,0.21-1.83,0.649-2.52c0.021-0.02,0.04-0.04,0.05-0.06c1.061-1.59,3.45-2.5,7.311-2.78   c0.99-0.08,2.05-0.11,3.24-0.11h14.29c1.39,0,2.67,0.05,3.8,0.15c3.6,0.34,5.83,1.26,6.81,2.83c0.021,0.03,0.04,0.05,0.05,0.08   c0.391,0.66,0.591,1.47,0.591,2.41V59.52z"/><path d="M41.725,43.464h-3.68c-0.553,0-1-0.448-1-1v-8.796c-0.033-0.609,0.06-4,6.113-4.794c2.168-0.282,3.804,0.199,4.841,1.413   c1.441,1.687,1.075,4.137,1.06,4.24c-0.027,0.168-0.096,0.327-0.201,0.461l-6.346,8.093C42.322,43.323,42.032,43.464,41.725,43.464   z M39.045,41.464h2.193l5.866-7.481c0.03-0.49,0.021-1.646-0.631-2.403c-0.581-0.673-1.563-0.916-3.056-0.723   c-4.502,0.59-4.383,2.639-4.38,2.66c0.005,0.04,0.007,0.08,0.007,0.12V41.464z"/><path d="M25.954,43.464h-3.679c-0.308,0-0.598-0.141-0.787-0.383l-6.346-8.093c-0.104-0.134-0.174-0.293-0.2-0.461   c-0.017-0.103-0.384-2.553,1.057-4.24c1.039-1.215,2.676-1.696,4.843-1.414c6.054,0.794,6.146,4.186,6.112,4.794v8.796   C26.954,43.016,26.507,43.464,25.954,43.464z M22.762,41.464h2.192v-7.828c0-0.04,0.002-0.08,0.007-0.12   c0.003-0.059,0.074-2.075-4.379-2.659c-1.498-0.195-2.482,0.052-3.063,0.729c-0.646,0.757-0.654,1.907-0.624,2.396L22.762,41.464z"/></g><text x="0.0" y="75.2" font-size="3.2" font-weight="bold" font-family="Arbeit Regular, Helvetica, Arial-Unicode, Arial, Sans-serif" fill="#000000">Created by rizal2109</text><text x="0.0" y="78.4" font-size="3.2" font-weight="bold" font-family="Arbeit Regular, Helvetica, Arial-Unicode, Arial, Sans-serif" fill="#000000">from Noun Project</text></svg>