<svg xmlns="http://www.w3.org/2000/svg" xmlns:xlink="http://www.w3.org/1999/xlink" version="1.1" x="0px" y="0px" viewBox="-3.2 -6.4 70.4 86.4" style="enable-background:new 0 0 64 64;" xml:space="preserve"><g><path d="M50.11,51.77c-10.13-9.09-9.891-18.84-9.801-20.28h1.051c2.75,0,4.989-2.02,4.989-4.49s-2.239-4.49-4.989-4.49h-3.82   c3.12-1.88,5.21-5.31,5.21-9.21c0-5.93-4.82-10.76-10.75-10.76c-5.93,0-10.75,4.83-10.75,10.76c0,3.9,2.09,7.33,5.21,9.21h-3.82   c-2.75,0-4.99,2.02-4.99,4.49s2.24,4.49,4.99,4.49h1.04c0.11,1.43,0.38,11.15-9.79,20.28c-0.21,0.19-0.33,0.46-0.33,0.75v7.94   c0,0.55,0.45,1,1,1h34.88c0.55,0,1-0.45,1-1v-7.94C50.44,52.23,50.32,51.96,50.11,51.77z M23.25,13.3c0-4.83,3.92-8.76,8.75-8.76   s8.75,3.93,8.75,8.76c0,4.82-3.92,8.75-8.75,8.75S23.25,18.12,23.25,13.3z M19.65,27c0-1.37,1.34-2.49,2.99-2.49h18.72   c1.649,0,2.989,1.12,2.989,2.49s-1.34,2.49-2.989,2.49H22.64C20.99,29.49,19.65,28.37,19.65,27z M48.44,59.46H15.56v-6.5   c10.26-9.42,10.28-19.28,10.14-21.47h12.6c-0.14,2.19-0.12,12.05,10.141,21.47V59.46z"/></g></svg>