<svg xmlns="http://www.w3.org/2000/svg" xmlns:xlink="http://www.w3.org/1999/xlink" version="1.1" x="0px" y="0px" viewBox="-3.2 -6.4 70.4 86.4" style="enable-background:new 0 0 64 64;" xml:space="preserve"><g><path d="M54.43,15.38c-3.68,0-6.67,3-6.67,6.68c0,1.11,0.28,2.17,0.77,3.09l-4.09,3.79L44,18.01c2.2-1.08,3.72-3.35,3.72-5.97   c0-3.68-3-6.67-6.68-6.67s-6.67,2.99-6.67,6.67c0,2.09,0.96,3.95,2.46,5.18L32.57,27.8h-1.14l-4.26-10.58   c1.5-1.23,2.46-3.09,2.46-5.18c0-3.68-2.99-6.67-6.67-6.67s-6.68,2.99-6.68,6.67c0,2.62,1.52,4.89,3.72,5.97l-0.44,10.93   l-4.08-3.79c0.48-0.92,0.76-1.98,0.76-3.09c0-3.68-2.99-6.68-6.67-6.68c-3.68,0-6.68,3-6.68,6.68c0,3.16,2.21,5.81,5.17,6.49   c0.01,0.07,0.03,0.14,0.06,0.21l8.13,18.44c-1.29,0.56-2.25,1.32-2.91,2.29c-0.01,0.02-0.02,0.03-0.04,0.06c-0.67,1-1,2.2-1,3.58   v4.5c0,0.56,0.45,1,1,1h37.4c0.55,0,1-0.44,1-1v-4.5c0-1.31-0.3-2.47-0.9-3.43c-0.02-0.03-0.04-0.06-0.06-0.08   c-0.66-1.02-1.65-1.82-3-2.41l8.14-18.45c0.03-0.07,0.05-0.14,0.06-0.21c2.96-0.68,5.17-3.33,5.17-6.49   C61.11,18.38,58.11,15.38,54.43,15.38z M36.37,12.04c0-2.58,2.1-4.67,4.67-4.67c2.58,0,4.68,2.09,4.68,4.67s-2.1,4.67-4.68,4.67   C38.47,16.71,36.37,14.62,36.37,12.04z M18.28,12.04c0-2.58,2.1-4.67,4.68-4.67c2.57,0,4.67,2.09,4.67,4.67s-2.1,4.67-4.67,4.67   C20.38,16.71,18.28,14.62,18.28,12.04z M4.89,22.06c0-2.58,2.1-4.68,4.68-4.68c2.58,0,4.67,2.1,4.67,4.68s-2.09,4.67-4.67,4.67   C6.99,26.73,4.89,24.64,4.89,22.06z M49.09,50.75c0.02,0.03,0.04,0.05,0.06,0.08c0.37,0.63,0.55,1.4,0.55,2.3v3.5H14.3v-3.5   c0-0.96,0.2-1.75,0.63-2.42c0.01-0.01,0.02-0.03,0.04-0.05c1.01-1.52,3.31-2.39,7.02-2.67c0.95-0.07,1.97-0.1,3.12-0.1h13.78   c1.35,0,2.58,0.05,3.66,0.15C46.01,48.36,48.15,49.25,49.09,50.75z M45.84,46.56c-0.92-0.23-1.96-0.4-3.11-0.51   c-1.15-0.11-2.41-0.16-3.84-0.16H25.11c-1.2,0-2.27,0.03-3.28,0.11c-1.39,0.1-2.61,0.28-3.68,0.55L10.28,28.7   c1.56-0.17,2.96-0.88,4.01-1.93l5.5,5.11c0.19,0.18,0.44,0.27,0.68,0.27c0.13,0,0.26-0.03,0.39-0.08c0.36-0.15,0.6-0.49,0.61-0.88   l0.5-12.56c0.32,0.05,0.65,0.08,0.99,0.08c0.87,0,1.7-0.17,2.46-0.48l4.41,10.94c0.15,0.38,0.52,0.63,0.93,0.63h2.48   c0.41,0,0.78-0.25,0.93-0.63l4.41-10.94c0.76,0.31,1.59,0.48,2.46,0.48c0.33,0,0.66-0.02,0.98-0.08l0.51,12.56   c0.01,0.39,0.25,0.73,0.61,0.88c0.13,0.05,0.26,0.08,0.39,0.08c0.24,0,0.49-0.09,0.68-0.27l5.5-5.11c1.05,1.05,2.45,1.76,4.01,1.93   L45.84,46.56z M54.43,26.73c-2.58,0-4.67-2.09-4.67-4.67s2.09-4.68,4.67-4.68c2.58,0,4.68,2.1,4.68,4.68S57.01,26.73,54.43,26.73z"/></g><text x="0.0" y="75.2" font-size="3.2" font-weight="bold" font-family="Arbeit Regular, Helvetica, Arial-Unicode, Arial, Sans-serif" fill="#000000">Created by rizal2109</text><text x="0.0" y="78.4" font-size="3.2" font-weight="bold" font-family="Arbeit Regular, Helvetica, Arial-Unicode, Arial, Sans-serif" fill="#000000">from Noun Project</text></svg>