<svg xmlns="http://www.w3.org/2000/svg" xmlns:xlink="http://www.w3.org/1999/xlink" version="1.1" x="0px" y="0px" viewBox="-3.2 -6.4 70.4 86.4" style="enable-background:new 0 0 64 64;" xml:space="preserve"><g><path d="M51.36,51.64c-0.02-0.03-0.03-0.06-0.05-0.08c-1.16-2.23-3.39-3.62-6.79-4.25c5.39-7.6,4.88-15.15,3.43-20.28   c-1.94-6.82-6.33-12.13-8.62-12.94c-0.57-0.2-1.16-0.12-1.67,0.23c-2.78,1.86-3.79,13.93-4.09,18.93c-1-0.02-2.61-0.06-3.92-0.09   c-0.88-1.5-0.49-11.49,3.1-16.67c1.28-1.83,5.29-8.1,3.27-11.83c-0.56-1.03-1.83-2.25-4.69-2.16c-2.22,0.06-3.79,0.82-4.67,2.23   c-1.35,2.17-0.53,5.24-0.03,6.64c-3.39,2.79-19.2,17.24-6.95,35.9c-3.43,0.61-5.69,1.97-6.9,4.13c-0.02,0.02-0.03,0.04-0.05,0.07   c-0.64,1.19-0.97,2.63-0.97,4.28V60c0,0.55,0.45,1,1,1h38.48c0.55,0,1-0.45,1-1v-4.25C52.24,54.18,51.94,52.79,51.36,51.64z    M28.42,12.5c0.39-0.28,0.52-0.79,0.33-1.22c-0.45-0.99-1.39-3.9-0.39-5.5c0.5-0.8,1.52-1.24,3.03-1.28   c1.48-0.04,2.45,0.33,2.87,1.11c0.95,1.76-0.32,5.67-3.15,9.74c-3.63,5.24-4.7,15.78-3.24,18.7c0.47,0.93,1.15,1.09,1.52,1.1   c2.08,0.06,5.11,0.12,5.11,0.12c0.52-0.01,0.99-0.41,1.02-0.95C36,25.13,37.46,16.83,38.73,16c1.41,0.59,5.45,5.08,7.29,11.58   c1.39,4.88,1.84,12.18-3.76,19.43c-0.97-0.08-2.04-0.12-3.17-0.12H24.91c-1.11,0-2.12,0.03-2.98,0.11   C8.26,27.48,27.59,13.11,28.42,12.5z M50.24,59H13.76v-3.25c0-1.3,0.23-2.37,0.7-3.27c0.01-0.02,0.03-0.04,0.04-0.06   c1.07-1.97,3.36-3.05,7.11-3.39c0.03,0,0.07-0.01,0.1-0.01c0.97-0.09,2.01-0.13,3.2-0.13h14.18c1.18,0,2.28,0.04,3.27,0.14   c0.01,0,0.46,0.05,0.48,0.05c3.54,0.4,5.74,1.53,6.72,3.46c0.02,0.03,0.03,0.05,0.05,0.08c0.42,0.86,0.63,1.91,0.63,3.13V59z"/></g><text x="0.0" y="75.2" font-size="3.2" font-weight="bold" font-family="Arbeit Regular, Helvetica, Arial-Unicode, Arial, Sans-serif" fill="#000000">Created by rizal2109</text><text x="0.0" y="78.4" font-size="3.2" font-weight="bold" font-family="Arbeit Regular, Helvetica, Arial-Unicode, Arial, Sans-serif" fill="#000000">from Noun Project</text></svg>